<svg xmlns="http://www.w3.org/2000/svg">
  <defs>
    <!-- Common system glyphs use the open-source Lucide geometry identified in the inspected desktop bundle. See LUCIDE_LICENSE.txt. -->
    <symbol id="pi-panel" viewBox="0 0 24 24">
      <g fill="none" stroke="currentColor" stroke-width="2" stroke-linecap="round" stroke-linejoin="round"><rect width="18" height="18" x="3" y="3" rx="2"/><path d="M9 3v18"/></g>
    </symbol>
    <symbol id="pi-pin" viewBox="0 0 24 24">
      <g fill="none" stroke="currentColor" stroke-width="2" stroke-linecap="round" stroke-linejoin="round"><path d="M12 17v5"/><path d="M9 10.76a2 2 0 0 1-1.11 1.79l-1.78.9A2 2 0 0 0 5 15.24V16a1 1 0 0 0 1 1h12a1 1 0 0 0 1-1v-.76a2 2 0 0 0-1.11-1.79l-1.78-.9A2 2 0 0 1 15 10.76V7a1 1 0 0 1 1-1 2 2 0 0 0 0-4H8a2 2 0 0 0 0 4 1 1 0 0 1 1 1Z"/></g>
    </symbol>
    <symbol id="pi-search" viewBox="0 0 24 24">
      <g fill="none" stroke="currentColor" stroke-width="2" stroke-linecap="round" stroke-linejoin="round"><circle cx="11" cy="11" r="8"/><path d="m21 21-4.3-4.3"/></g>
    </symbol>
    <symbol id="pi-home" viewBox="0 0 24 24">
      <g fill="none" stroke="currentColor" stroke-width="2" stroke-linecap="round" stroke-linejoin="round"><path d="M15 21v-8a1 1 0 0 0-1-1h-4a1 1 0 0 0-1 1v8"/><path d="M3 10a2 2 0 0 1 .709-1.528l7-5.999a2 2 0 0 1 2.582 0l7 5.999A2 2 0 0 1 21 10v9a2 2 0 0 1-2 2H5a2 2 0 0 1-2-2Z"/></g>
    </symbol>
    <symbol id="pi-knowledge" viewBox="0 0 24 24">
      <g fill="none" stroke="currentColor" stroke-width="2" stroke-linecap="round" stroke-linejoin="round"><path d="m17 14 3 3.3a1 1 0 0 1-.7 1.7H4.7a1 1 0 0 1-.7-1.7L7 14h-.3a1 1 0 0 1-.7-1.7L9 9h-.2A1 1 0 0 1 8 7.3L12 3l4 4.3a1 1 0 0 1-.8 1.7H15l3 3.3a1 1 0 0 1-.7 1.7H17Z"/><path d="M12 22v-3"/></g>
    </symbol>
    <symbol id="pi-settings" viewBox="0 0 24 24">
      <g fill="none" stroke="currentColor" stroke-width="2" stroke-linecap="round" stroke-linejoin="round"><path d="M12.22 2h-.44a2 2 0 0 0-2 2v.18a2 2 0 0 1-1 1.73l-.43.25a2 2 0 0 1-2 0l-.15-.08a2 2 0 0 0-2.73.73l-.22.38a2 2 0 0 0 .73 2.73l.15.1a2 2 0 0 1 1 1.72v.51a2 2 0 0 1-1 1.74l-.15.09a2 2 0 0 0-.73 2.73l.22.38a2 2 0 0 0 2.73.73l.15-.08a2 2 0 0 1 2 0l.43.25a2 2 0 0 1 1 1.73V20a2 2 0 0 0 2 2h.44a2 2 0 0 0 2-2v-.18a2 2 0 0 1 1-1.73l.43-.25a2 2 0 0 1 2 0l.15.08a2 2 0 0 0 2.73-.73l.22-.39a2 2 0 0 0-.73-2.73l-.15-.08a2 2 0 0 1-1-1.74v-.5a2 2 0 0 1 1-1.74l.15-.09a2 2 0 0 0 .73-2.73l-.22-.38a2 2 0 0 0-2.73-.73l-.15.08a2 2 0 0 1-2 0l-.43-.25a2 2 0 0 1-1-1.73V4a2 2 0 0 0-2-2Z"/><circle cx="12" cy="12" r="3"/></g>
    </symbol>
    <symbol id="pi-folder" viewBox="0 0 24 24">
      <path d="M20 20a2 2 0 0 0 2-2V8a2 2 0 0 0-2-2h-7.9a2 2 0 0 1-1.69-.9L9.6 3.9A2 2 0 0 0 7.93 3H4a2 2 0 0 0-2 2v13a2 2 0 0 0 2 2Z" fill="none" stroke="currentColor" stroke-width="2" stroke-linecap="round" stroke-linejoin="round"/>
    </symbol>
    <symbol id="pi-chevron-down" viewBox="0 0 24 24"><path d="m6 9 6 6 6-6" fill="none" stroke="currentColor" stroke-width="2" stroke-linecap="round" stroke-linejoin="round"/></symbol>
    <symbol id="pi-chevron-right" viewBox="0 0 24 24"><path d="m9 18 6-6-6-6" fill="none" stroke="currentColor" stroke-width="2" stroke-linecap="round" stroke-linejoin="round"/></symbol>
    <symbol id="pi-arrow-left" viewBox="0 0 24 24"><g fill="none" stroke="currentColor" stroke-width="2" stroke-linecap="round" stroke-linejoin="round"><path d="m12 19-7-7 7-7"/><path d="M19 12H5"/></g></symbol>
    <symbol id="pi-plus" viewBox="0 0 24 24"><g fill="none" stroke="currentColor" stroke-width="2" stroke-linecap="round" stroke-linejoin="round"><path d="M5 12h14"/><path d="M12 5v14"/></g></symbol>
    <symbol id="pi-send" viewBox="0 0 24 24"><g fill="none" stroke="currentColor" stroke-width="2" stroke-linecap="round" stroke-linejoin="round"><path d="m5 12 7-7 7 7"/><path d="M12 19V5"/></g></symbol>
    <symbol id="pi-close" viewBox="0 0 24 24"><g fill="none" stroke="currentColor" stroke-width="2" stroke-linecap="round" stroke-linejoin="round"><path d="M18 6 6 18"/><path d="m6 6 12 12"/></g></symbol>
    <symbol id="pi-more" viewBox="0 0 24 24"><circle cx="5" cy="12" r="1" fill="currentColor"/><circle cx="12" cy="12" r="1" fill="currentColor"/><circle cx="19" cy="12" r="1" fill="currentColor"/></symbol>
    <symbol id="pi-edit" viewBox="0 0 24 24"><g fill="none" stroke="currentColor" stroke-width="2" stroke-linecap="round" stroke-linejoin="round"><path d="M21.174 6.812a1 1 0 0 0-3.986-3.987L3.842 16.174a2 2 0 0 0-.5.83l-1.321 4.352a.5.5 0 0 0 .623.622l4.353-1.32a2 2 0 0 0 .83-.497Z"/><path d="m15 5 4 4"/></g></symbol>
    <symbol id="pi-copy" viewBox="0 0 24 24"><g fill="none" stroke="currentColor" stroke-width="2" stroke-linecap="round" stroke-linejoin="round"><rect width="14" height="14" x="8" y="8" rx="2" ry="2"/><path d="M4 16c-1.1 0-2-.9-2-2V4c0-1.1.9-2 2-2h10c1.1 0 2 .9 2 2"/></g></symbol>
    <symbol id="pi-file" viewBox="0 0 24 24"><g fill="none" stroke="currentColor" stroke-width="2" stroke-linecap="round" stroke-linejoin="round"><path d="M15 2H6a2 2 0 0 0-2 2v16a2 2 0 0 0 2 2h12a2 2 0 0 0 2-2V7Z"/><path d="M14 2v4a2 2 0 0 0 2 2h4"/></g></symbol>
    <symbol id="pi-file-text" viewBox="0 0 24 24"><g fill="none" stroke="currentColor" stroke-width="2" stroke-linecap="round" stroke-linejoin="round"><path d="M15 2H6a2 2 0 0 0-2 2v16a2 2 0 0 0 2 2h12a2 2 0 0 0 2-2V7Z"/><path d="M14 2v4a2 2 0 0 0 2 2h4"/><path d="M10 9H8"/><path d="M16 13H8"/><path d="M16 17H8"/></g></symbol>
    <symbol id="pi-presentation" viewBox="0 0 24 24"><g fill="none" stroke="currentColor" stroke-width="2" stroke-linecap="round" stroke-linejoin="round"><path d="M2 3h20"/><path d="M21 3v11a2 2 0 0 1-2 2H5a2 2 0 0 1-2-2V3"/><path d="m7 21 5-5 5 5"/></g></symbol>
    <symbol id="pi-spreadsheet" viewBox="0 0 24 24"><g fill="none" stroke="currentColor" stroke-width="2" stroke-linecap="round" stroke-linejoin="round"><rect width="18" height="18" x="3" y="3" rx="2" ry="2"/><path d="M3 9h18M3 15h18M9 9v12M15 9v12"/></g></symbol>
    <symbol id="pi-image" viewBox="0 0 24 24"><g fill="none" stroke="currentColor" stroke-width="2" stroke-linecap="round" stroke-linejoin="round"><rect width="18" height="18" x="3" y="3" rx="2" ry="2"/><circle cx="9" cy="9" r="2"/><path d="m21 15-3.086-3.086a2 2 0 0 0-2.828 0L6 21"/></g></symbol>
    <symbol id="pi-palette" viewBox="0 0 24 24"><g fill="none" stroke="currentColor" stroke-width="2" stroke-linecap="round" stroke-linejoin="round"><circle cx="13.5" cy="6.5" r=".5" fill="currentColor"/><circle cx="17.5" cy="10.5" r=".5" fill="currentColor"/><circle cx="8.5" cy="7.5" r=".5" fill="currentColor"/><circle cx="6.5" cy="12.5" r=".5" fill="currentColor"/><path d="M12 2C6.5 2 2 6.5 2 12s4.5 10 10 10c.926 0 1.648-.746 1.648-1.688 0-.437-.18-.835-.437-1.125-.29-.289-.438-.652-.438-1.125a1.64 1.64 0 0 1 1.668-1.668h1.996c3.051 0 5.555-2.503 5.555-5.554C21.965 6.012 17.461 2 12 2Z"/></g></symbol>
    <symbol id="pi-database" viewBox="0 0 24 24"><g fill="none" stroke="currentColor" stroke-width="2" stroke-linecap="round" stroke-linejoin="round"><ellipse cx="12" cy="5" rx="9" ry="3"/><path d="M3 5v14a9 3 0 0 0 18 0V5"/><path d="M3 12a9 3 0 0 0 18 0"/></g></symbol>
    <symbol id="pi-model" viewBox="0 0 24 24"><g fill="none" stroke="currentColor" stroke-width="2" stroke-linecap="round" stroke-linejoin="round"><rect width="16" height="16" x="4" y="4" rx="2"/><rect width="6" height="6" x="9" y="9" rx="1"/><path d="M15 2v2M15 20v2M2 15h2M2 9h2M20 15h2M20 9h2M9 2v2M9 20v2"/></g></symbol>
    <symbol id="pi-wrench" viewBox="0 0 24 24"><path d="M14.7 6.3a1 1 0 0 0 0 1.4l1.6 1.6a1 1 0 0 0 1.4 0l3.77-3.77a6 6 0 0 1-7.94 7.94l-6.91 6.91a2.12 2.12 0 0 1-3-3l6.91-6.91a6 6 0 0 1 7.94-7.94l-3.76 3.76Z" fill="none" stroke="currentColor" stroke-width="2" stroke-linecap="round" stroke-linejoin="round"/></symbol>
    <symbol id="pi-memory" viewBox="0 0 24 24"><g fill="none" stroke="currentColor" stroke-width="2" stroke-linecap="round" stroke-linejoin="round"><path d="M7 2h10"/><path d="M5 6h14"/><rect width="18" height="12" x="3" y="10" rx="2"/></g></symbol>
    <symbol id="pi-shield" viewBox="0 0 24 24"><g fill="none" stroke="currentColor" stroke-width="2" stroke-linecap="round" stroke-linejoin="round"><path d="M20 13c0 5-3.5 7.5-7.66 8.95a1 1 0 0 1-.67-.01C7.5 20.5 4 18 4 13V6a1 1 0 0 1 1-1c2 0 4.5-1.2 6.24-2.72a1.17 1.17 0 0 1 1.52 0C14.51 3.81 17 5 19 5a1 1 0 0 1 1 1Z"/><path d="m9 12 2 2 4-4"/></g></symbol>
    <symbol id="pi-skill" viewBox="0 0 24 24"><g fill="none" stroke="currentColor" stroke-width="2" stroke-linecap="round" stroke-linejoin="round"><rect width="7" height="7" x="14" y="3" rx="1"/><path d="M10 21V8a1 1 0 0 0-1-1H4a1 1 0 0 0-1 1v12a1 1 0 0 0 1 1h12a1 1 0 0 0 1-1v-5a1 1 0 0 0-1-1H3"/></g></symbol>
    <symbol id="pi-package" viewBox="0 0 24 24"><g fill="none" stroke="currentColor" stroke-width="2" stroke-linecap="round" stroke-linejoin="round"><path d="M11 21.73a2 2 0 0 0 2 0l7-4A2 2 0 0 0 21 16V8a2 2 0 0 0-1-1.73l-7-4a2 2 0 0 0-2 0l-7 4A2 2 0 0 0 3 8v8a2 2 0 0 0 1 1.73Z"/><path d="M12 22V12"/><path d="m3.3 7 7.703 4.734a2 2 0 0 0 1.994 0L20.7 7"/><path d="m7.5 4.27 9 5.15"/></g></symbol>
    <symbol id="pi-sun" viewBox="0 0 24 24"><g fill="none" stroke="currentColor" stroke-width="2" stroke-linecap="round" stroke-linejoin="round"><circle cx="12" cy="12" r="4"/><path d="M12 2v2M12 20v2M4.93 4.93l1.41 1.41M17.66 17.66l1.41 1.41M2 12h2M20 12h2M6.34 17.66l-1.41 1.41M19.07 4.93l-1.41 1.41"/></g></symbol>
    <symbol id="pi-restore" viewBox="0 0 24 24"><g fill="none" stroke="currentColor" stroke-width="2" stroke-linecap="round" stroke-linejoin="round"><rect width="20" height="5" x="2" y="3" rx="1"/><path d="M4 8v11a2 2 0 0 0 2 2h2M20 8v11a2 2 0 0 1-2 2h-2M9 15l3-3 3 3M12 12v9"/></g></symbol>
    <symbol id="pi-link" viewBox="0 0 24 24"><g fill="none" stroke="currentColor" stroke-width="2" stroke-linecap="round" stroke-linejoin="round"><path d="M10 13a5 5 0 0 0 7.54.54l3-3a5 5 0 0 0-7.07-7.07l-1.72 1.71"/><path d="M14 11a5 5 0 0 0-7.54-.54l-3 3a5 5 0 0 0 7.07 7.07l1.71-1.71"/></g></symbol>
    <symbol id="pi-globe" viewBox="0 0 24 24"><g fill="none" stroke="currentColor" stroke-width="2" stroke-linecap="round" stroke-linejoin="round"><circle cx="12" cy="12" r="10"/><path d="M12 2a14.5 14.5 0 0 0 0 20 14.5 14.5 0 0 0 0-20M2 12h20"/></g></symbol>
    <symbol id="pi-mail" viewBox="0 0 24 24"><g fill="none" stroke="currentColor" stroke-width="2" stroke-linecap="round" stroke-linejoin="round"><rect width="20" height="16" x="2" y="4" rx="2"/><path d="m22 7-8.97 5.7a1.94 1.94 0 0 1-2.06 0L2 7"/></g></symbol>
    <symbol id="pi-thumb-up" viewBox="0 0 24 24"><g fill="none" stroke="currentColor" stroke-width="2" stroke-linecap="round" stroke-linejoin="round"><path d="M7 10v12"/><path d="M15 5.88 14 10h5.83a2 2 0 0 1 1.92 2.56l-2.33 8A2 2 0 0 1 17.5 22H4a2 2 0 0 1-2-2v-8a2 2 0 0 1 2-2h2.76a2 2 0 0 0 1.79-1.11L12 2a3.13 3.13 0 0 1 3 3.88Z"/></g></symbol>
    <symbol id="pi-thumb-down" viewBox="0 0 24 24"><g fill="none" stroke="currentColor" stroke-width="2" stroke-linecap="round" stroke-linejoin="round"><path d="M17 14V2"/><path d="M9 18.12 10 14H4.17a2 2 0 0 1-1.92-2.56l2.33-8A2 2 0 0 1 6.5 2H20a2 2 0 0 1 2 2v8a2 2 0 0 1-2 2h-2.76a2 2 0 0 0-1.79 1.11L12 22a3.13 3.13 0 0 1-3-3.88Z"/></g></symbol>
  </defs>
</svg>
